<svg id="eRDaE9Jk7Ax1" xmlns="http://www.w3.org/2000/svg" xmlns:xlink="http://www.w3.org/1999/xlink" viewBox="0 0 218.43243 63.243244" shape-rendering="geometricPrecision" text-rendering="geometricPrecision" project-id="e062c62b92be4b389406e3cc722941d7" export-id="66a8fce966c5471d823c2327d3dc14e1" cached="false">
<style><![CDATA[
#eRDaE9Jk7Ax3_to {animation: eRDaE9Jk7Ax3_to__to 1212.121212121212ms linear 1 normal forwards}@keyframes eRDaE9Jk7Ax3_to__to { 0% {transform: translate(-28.426801px,91.043076px)} 100% {transform: translate(49.573199px,91.043076px)}} #eRDaE9Jk7Ax4_to {animation: eRDaE9Jk7Ax4_to__to 1212.121212121212ms linear 1 normal forwards}@keyframes eRDaE9Jk7Ax4_to__to { 0% {transform: translate(-67.163238px,112.135136px)} 100% {transform: translate(89.836762px,112.135136px)}} #eRDaE9Jk7Ax5_to {animation: eRDaE9Jk7Ax5_to__to 1212.121212121212ms linear 1 normal forwards}@keyframes eRDaE9Jk7Ax5_to__to { 0% {transform: translate(-56.077271px,133.227196px)} 100% {transform: translate(79.922729px,133.227196px)}}
]]></style>
<g transform="translate(-12.8919-80.5135)"><g id="eRDaE9Jk7Ax3_to" transform="translate(-28.426801,91.043076)"><path d="M27.253257,95.061771q0,1.666666-.623053,2.897195-.607476,1.230529-1.713395,2.040498-1.105918.794396-2.632397,1.183796t-3.333332.38941q-1.604361,0-3.099688-.18691t-2.9595-.62306v-3.785042q.71651.249221,1.495326.46729t1.557632.389408q.794392.155763,1.573208.249221t1.510903.09346q1.090342,0,1.853582-.186916t1.246105-.514019.700935-.778816.218068-.996884q0-.747663-.436137-1.246105-.42056-.514019-1.121495-.903427t-1.60436-.700934q-.887851-.311527-1.82243-.669782-.919002-.358255-1.822429-.809968-.88785-.451714-1.588784-1.121495t-1.137071-1.588785q-.420561-.934579-.420561-2.24299q0-1.199376.436137-2.274142t1.370716-1.869158q.934579-.809969,2.398753-1.277258q1.464174-.482866,3.535824-.482866.607476,0,1.261682.0623.669781.04673,1.30841.140187.654206.07788,1.246106.202492.607476.109034,1.105918.233645v3.504672q-.498442-.186916-1.090342-.342679t-1.230529-.264798q-.623053-.12461-1.261682-.186916t-1.214952-.0623q-1.012461,0-1.713395.17134-.700935.155763-1.152648.451713-.451713.280374-.654205.700934t-.202492.934579q0,.638629.42056,1.105919.436137.451713,1.137071.825545.716511.358255,1.604361.685358.903427.311526,1.838006.685358.950155.358255,1.838005.825544.903427.46729,1.604361,1.137072.71651.669781,1.137071,1.588784.436137.903426.436137,2.149532Zm20.996261-4.112148q0,2.772585-.654205,4.78193-.638629,2.009345-1.7757,3.302179-1.121495,1.292838-2.647974,1.915888-1.510903.62305-3.239874.62305-4.01869,0-6.043612-2.663549-2.024921-2.679126-2.024921-7.772582q0-2.772585.638629-4.78193.654205-2.009345,1.7757-3.302179q1.137071-1.292835,2.647974-1.915887q1.526479-.623053,3.255451-.623053q4.01869,0,6.043611,2.66355t2.024921,7.772583Zm-4.049842.186916q0-3.613706-.965732-5.389406t-3.177569-1.7757q-1.105918,0-1.884734.467289-.778816.451713-1.292835,1.339563-.498442.887851-.732087,2.196261-.233644,1.292835-.233644,2.975077q0,3.613706.965731,5.389406.981308,1.7757,3.177569,1.7757q1.105919,0,1.884735-.451713.794392-.46729,1.292834-1.35514t.732087-2.180684q.233645-1.308411.233645-2.990653ZM64.666342,101.21442l-.373831-11.510902-.140187-4.595014-.981308,3.115263-2.258566,6.931462h-2.398753l-2.040498-6.931462-.856697-3.115263-.109035,4.501556-.342679,11.60436h-3.25545l.996884-20.358251h4.330217l1.791276,5.778814.856698,3.25545.856697-3.068534l1.884735-5.96573h4.408098l1.01246,20.358251h-3.380061Zm9.329598,0v-20.358251h12.258562v3.239874h-8.364483v5.062303h7.975075v3.161993h-7.975075v5.654203h8.364483v3.239878h-12.258562Z" transform="translate(-49.573199,-91.043076)" fill="#bc1b1b" stroke-width="1.5071" stroke-dasharray="4.52131,1.5071"/></g><g id="eRDaE9Jk7Ax4_to" transform="translate(-67.163238,112.135136)"><path d="M12.891892,105.07907v-3.13084h12.866039v3.13084h-4.48598v14.06541h4.48598v3.16199h-12.866039v-3.16199h4.48598v-14.06541h-4.48598Zm29.111523,17.2274l-5.451711-12.14953-1.121495-2.61682v8.44237v6.32398h-3.489095v-20.35824h4.704048l5.560746,12.2274.981308,2.38318v-8.98753-5.62305h3.489095v20.35824h-4.672896Zm19.127104-17.1651v17.1651h-3.925232v-17.1651h-5.576322v-3.19314h15.077875v3.19314h-5.576321Zm12.055453,17.1651v-20.35824h12.258562v3.23987h-8.364483v5.0623h7.975075v3.162h-7.975075v5.6542h8.364483v3.23987h-12.258562Zm29.329588,0l-2.866038-6.54205q-.404984-.93458-1.137071-1.40187-.71651-.48287-1.697818-.48287h-.732087v8.42679h-3.831775v-20.35824h5.934578q1.682242,0,3.052961.29595q1.37071.28037,2.33644.95015t1.47975,1.74455q.5296,1.07476.5296,2.6324q0,1.12149-.3271,1.99376t-.91901,1.51091q-.5919.62305-1.41744,1.01246-.80997.38941-1.7757.54517.74766.15576,1.37071.8567.62306.68535,1.24611,1.99377l3.25545,6.82242h-4.50156Zm-.95015-14.36136q0-1.49533-.95016-2.14953t-2.850462-.65421h-1.682242v5.74766h1.557631q.887851,0,1.604361-.18691.732087-.18692,1.246102-.56075t.7944-.919q.28037-.56075.28037-1.27726Zm10.93396-2.86604v-3.13084h12.86604v3.13084h-4.48598v14.06541h4.48598v3.16199h-12.86604v-3.16199h4.48598v-14.06541h-4.48598Zm34.54765,6.96261q0,2.77258-.6542,4.78193-.63863,2.00934-1.7757,3.30218-1.1215,1.29283-2.64798,1.91589-1.5109.62305-3.23987.62305-4.01869,0-6.04361-2.66355-2.02492-2.67913-2.02492-7.77258q0-2.77259.63863-4.78193.6542-2.00935,1.7757-3.30218q1.13707-1.29284,2.64797-1.91589q1.52648-.62305,3.25545-.62305q4.01869,0,6.04361,2.66355t2.02492,7.77258Zm-4.04984.18692q0-3.61371-.96573-5.38941t-3.17757-1.7757q-1.10592,0-1.88473.46729-.77882.45171-1.29284,1.33956-.49844.88785-.73209,2.19626-.23364,1.29284-.23364,2.97508q0,3.61371.96573,5.38941.98131,1.7757,3.17757,1.7757q1.10592,0,1.88473-.45172.7944-.46729,1.29284-1.35514t.73209-2.18068q.23364-1.30841.23364-2.99065Zm19.28287,10.07787l-2.86604-6.54205q-.40498-.93458-1.13707-1.40187-.71651-.48287-1.69782-.48287h-.73209v8.42679h-3.83177v-20.35824h5.93458q1.68224,0,3.05296.29595q1.37071.28037,2.33644.95015t1.47975,1.74455q.5296,1.07476.5296,2.6324q0,1.12149-.3271,1.99376t-.91901,1.51091q-.5919.62305-1.41744,1.01246-.80997.38941-1.7757.54517.74766.15576,1.37071.8567.62306.68535,1.24611,1.99377l3.25545,6.82242h-4.50156Zm-.95015-14.36136q0-1.49533-.95016-2.14953t-2.85046-.65421h-1.68225v5.74766h1.55764q.88785,0,1.60436-.18691.73208-.18692,1.2461-.56075t.79439-.919q.28038-.56075.28038-1.27726Z" transform="translate(-89.836762,-112.135136)" fill="#bc1b1b" stroke-width="1.5071" stroke-dasharray="4.52131,1.5071"/></g><g id="eRDaE9Jk7Ax5_to" transform="translate(-56.077271,133.227196)"><path d="M27.720547,135.90629q0,1.94704-.529595,3.42679-.514018,1.46417-1.495326,2.44548-.965732.98131-2.367601,1.47975t-3.146416.49844q-1.962616,0-3.364485-.49844t-2.274142-1.43302-1.261682-2.27414-.389408-3.00623v-13.50467h3.831775v13.27102q0,1.02804.171339,1.82243.186916.7944.623053,1.35514.451713.54517,1.121495.82555t1.682242.28037q.950155,0,1.604361-.23364.654205-.24922,1.090342-.77882.436137-.54517.654205-1.38629t.218069-2.0405v-13.11526h3.831774v12.86604ZM47.688771,129.52q0,1.58878-.529594,2.94392-.529595,1.33957-1.573209,2.32087t-2.601245,1.52648-3.613705.54518h-1.94704v6.54205h-3.862927v-20.35825h5.96573q1.978192,0,3.489095.43614q1.526479.42056,2.554516,1.2461q1.043613.82555,1.573208,2.0405.545171,1.19938.545171,2.75701Zm-4.01869.2648q0-.80997-.264797-1.46418-.249221-.66978-.778816-1.13707-.514018-.46729-1.308411-.71651t-1.884734-.24922h-2.009345v7.46106h2.133955q.996885,0,1.760124-.2648.76324-.28037,1.277258-.79439.529595-.51402.794393-1.23053.280373-.71651.280373-1.60436Zm24.423052,3.17757q0,2.3676-.5919,4.29906-.576324,1.93146-1.82243,3.30218-1.230529,1.35514-3.161992,2.1028-1.931464.73209-4.626167.73209h-5.171337v-20.35825h6.028035q2.336448,0,4.080995.5919q1.760124.57632,2.928348,1.79128t1.744548,3.08411q.5919,1.86916.5919,4.45483Zm-4.112148.24922q0-1.65109-.264798-2.94393t-.903426-2.18068q-.623053-.90343-1.682242-1.37072t-2.632398-.46729h-1.94704v13.94081h1.682242q2.819314,0,4.283488-1.68225t1.464174-5.29594ZM84.541107,143.3985l-1.121495-4.01869h-7.102801l-1.152647,4.01869h-3.800622l6.028035-20.35825h5.358254l6.028035,20.35825h-4.236759Zm-4.626166-16.61993l-2.679127,9.4704h5.327101l-2.647974-9.4704Zm22.039879-.54517v17.1651h-3.925235v-17.1651h-5.576321v-3.19315h15.077876v3.19315h-5.57632Zm12.05545,17.1651v-20.35825h12.25856v3.23988h-8.36448v5.0623h7.97507v3.16199h-7.97507v5.6542h8.36448v3.23988h-12.25856Zm32.9433-6.15265q0,1.66667-.62306,2.8972-.60747,1.23053-1.71339,2.0405-1.10592.79439-2.6324,1.1838t-3.33333.3894q-1.60436,0-3.09969-.18691t-2.9595-.62305v-3.78505q.71651.24922,1.49533.46729t1.55763.38941q.79439.15576,1.57321.24922t1.5109.0935q1.09034,0,1.85358-.18692t1.24611-.51402.70093-.77881.21807-.99689q0-.74766-.43614-1.2461-.42056-.51402-1.12149-.90343t-1.60436-.70093q-.88785-.31153-1.82243-.66979-.919-.35825-1.82243-.80996-.88785-.45172-1.58879-1.1215t-1.13707-1.58878q-.42056-.93458-.42056-2.24299q0-1.19938.43614-2.27415t1.37072-1.86915q.93457-.80997,2.39875-1.27726q1.46417-.48287,3.53582-.48287.60748,0,1.26168.0623.66979.0467,1.30842.14018.6542.0779,1.2461.2025.60748.10903,1.10592.23364v3.50467q-.49844-.18691-1.09034-.34268t-1.23053-.26479q-.62305-.12461-1.26168-.18692t-1.21496-.0623q-1.01246,0-1.71339.17133-.70094.15577-1.15265.45172-.45171.28037-.6542.70093t-.2025.93458q0,.63863.42056,1.10592.43614.45171,1.13708.82554.71651.35826,1.60436.68536.90342.31153,1.838.68536.95016.35826,1.83801.82555.90342.46728,1.60436,1.13707.71651.66978,1.13707,1.58878.43614.90343.43614,2.14953Z" transform="translate(-79.922729,-133.227196)" fill="#bc1b1b" stroke-width="1.5071" stroke-dasharray="4.52131,1.5071"/></g></g></svg>
